<?xml version="1.0" standalone="no"?>
<!DOCTYPE svg PUBLIC "-//W3C//DTD SVG 20010904//EN"
 "http://www.w3.org/TR/2001/REC-SVG-20010904/DTD/svg10.dtd">
<svg version="1.0" xmlns="http://www.w3.org/2000/svg"
 width="260.000000pt" height="260.000000pt" viewBox="0 0 260.000000 260.000000"
 preserveAspectRatio="xMidYMid meet">
<metadata>
Created by potrace 1.14, written by Peter Selinger 2001-2017
</metadata>
<g transform="translate(0.000000,260.000000) scale(0.100000,-0.100000)"
fill="#000000" stroke="none">
<path d="M1134 2590 c-287 -41 -530 -159 -737 -359 -184 -177 -306 -394 -365
-645 -22 -96 -26 -134 -26 -281 -1 -142 3 -187 22 -275 113 -511 505 -897
1022 -1007 118 -25 382 -25 500 0 257 55 462 163 649 343 197 189 320 411 378
684 25 118 25 381 0 500 -108 510 -488 901 -986 1016 -118 27 -349 40 -457 24z
m605 -459 c44 -35 75 -111 67 -168 -14 -104 -119 -232 -235 -286 -55 -26 -79
-31 -167 -35 l-103 -5 -88 -116 c-48 -63 -143 -173 -211 -242 l-123 -127 37
-64 c59 -101 170 -228 200 -228 6 0 16 26 23 58 45 203 219 449 366 516 114
53 205 60 270 21 111 -65 143 -192 89 -353 -32 -97 -69 -154 -142 -224 -125
-119 -303 -175 -458 -143 -41 9 -82 19 -90 22 -11 4 -14 -8 -14 -63 0 -70 12
-103 73 -206 17 -29 20 -42 11 -55 -17 -27 -32 -26 -63 5 -41 40 -62 120 -65
245 l-3 104 -76 75 c-42 42 -101 114 -132 161 -31 48 -60 89 -64 92 -5 3 -53
-18 -107 -46 -91 -48 -102 -51 -156 -47 -47 3 -64 10 -88 33 -40 39 -46 73
-20 133 25 58 60 95 113 117 31 13 49 14 94 5 61 -11 68 -15 130 -73 l41 -40
59 51 c106 92 343 373 343 406 0 7 -21 28 -47 46 -26 19 -86 68 -132 109 -47
41 -100 80 -118 88 -43 18 -147 17 -183 -2 -69 -36 -81 -106 -26 -161 40 -40
77 -44 134 -15 40 20 82 14 82 -12 0 -27 -28 -38 -112 -43 -72 -5 -87 -3 -116
15 -44 28 -77 97 -68 144 8 43 46 91 90 114 43 24 179 23 224 -1 19 -10 66
-46 105 -80 106 -92 166 -136 187 -136 12 0 49 49 119 158 103 162 179 249
243 277 39 17 62 12 107 -24z m-302 -1609 c48 -81 43 -255 -9 -283 -41 -22
-65 15 -33 51 21 23 35 109 25 153 -4 20 -18 53 -29 73 -12 20 -20 43 -17 50
9 23 35 4 63 -44z"/>
<path d="M1578 2058 c-56 -56 -195 -257 -230 -333 -17 -37 3 -47 72 -40 104
10 158 34 227 99 74 69 113 137 113 196 0 47 -11 73 -48 113 -39 41 -63 35
-134 -35z"/>
<path d="M1608 1424 c-82 -19 -126 -44 -194 -111 -111 -107 -202 -268 -231
-408 -15 -78 -15 -79 6 -96 26 -22 105 -39 175 -39 163 0 364 128 432 276 36
77 58 175 50 227 -9 61 -52 123 -102 147 -47 23 -58 23 -136 4z"/>
<path d="M573 1250 c-35 -21 -73 -85 -73 -123 0 -84 178 -71 276 20 l25 23
-26 34 c-49 64 -139 85 -202 46z"/>
</g>
</svg>
