<svg width="238" height="84" viewBox="0 0 238 84" fill="none" xmlns="http://www.w3.org/2000/svg">
<path fill-rule="evenodd" clip-rule="evenodd" d="M51.622 0.313044C50.882 0.506044 50.308 0.779044 49.955 1.10504C49.659 1.37904 49.144 1.80204 48.811 2.04504C47.297 3.15104 44.863 5.86704 44.245 7.14105C44.038 7.56805 43.673 8.09804 43.434 8.32104C43.195 8.54304 43 8.81005 43 8.91504C43 9.01904 42.771 9.32304 42.492 9.59104C42.212 9.85904 41.792 10.505 41.557 11.028C41.323 11.551 41.038 12.014 40.924 12.057C40.811 12.101 40.549 12.5 40.342 12.943C40.136 13.387 39.831 13.9 39.664 14.083C39.498 14.267 39.177 14.836 38.951 15.349C38.726 15.862 38.418 16.329 38.268 16.387C38.117 16.445 37.799 16.925 37.56 17.454C37.298 18.037 36.837 18.673 36.393 19.066L35.66 19.716L34.788 19.246C34.309 18.988 33.35 18.283 32.658 17.68C31.966 17.077 30.886 16.171 30.26 15.667C29.633 15.162 28.838 14.487 28.493 14.167C26.925 12.708 25.394 11.511 24.417 10.981C24.05 10.782 23.523 10.446 23.246 10.235C21.338 8.78204 14.326 8.88904 12.44 10.4C9.38696 12.845 8.20696 15.064 9.01796 16.833C9.20696 17.246 9.50796 17.97 9.68696 18.443C9.99996 19.269 10.566 19.89 11.998 20.979C12.284 21.196 13.08 21.583 13.767 21.84C14.454 22.096 15.13 22.401 15.27 22.517C15.697 22.871 17.961 22.785 18.75 22.384C19.117 22.198 19.802 21.92 20.272 21.766C21.251 21.446 21.533 21.171 21.788 20.29C22.128 19.116 20.514 18.728 19.015 19.623C17.168 20.726 14.027 19.745 12.279 17.52C10.809 15.649 10.845 15.331 12.731 13.54L13.924 12.406L15.837 12.007C18.402 11.472 18.224 11.46 21.414 12.386C21.78 12.493 22.305 12.776 22.581 13.017C22.857 13.257 23.325 13.577 23.62 13.729C23.915 13.88 24.239 14.158 24.34 14.346C24.441 14.534 24.841 14.824 25.228 14.991C25.898 15.278 26.846 15.985 28.192 17.2C28.526 17.503 29.089 17.994 29.442 18.293C29.795 18.592 30.758 19.421 31.583 20.136C32.408 20.851 33.365 21.607 33.708 21.815C34.052 22.023 34.333 22.215 34.333 22.241C34.333 22.431 33.3 24.5 33.039 24.833C32.86 25.063 32.542 25.587 32.334 26C32.125 26.413 31.771 26.975 31.546 27.25C31.321 27.525 30.918 28.087 30.65 28.5C29.559 30.18 29.081 30.741 25.667 34.352C24.016 36.097 21.299 38.744 18.969 40.873C18.141 41.63 17.173 41.631 16.583 40.874C15.363 39.308 13.741 37.819 13.016 37.598C12.595 37.47 11.819 37.165 11.291 36.92C9.64796 36.158 7.45196 36.216 5.82496 37.064C4.52696 37.741 2.09496 40.029 1.55296 41.083C1.41096 41.358 1.11296 41.778 0.890957 42.017C-0.451043 43.452 -0.207043 47.183 1.32196 48.625C3.29196 50.482 9.09896 50.745 11.497 49.086C11.82 48.863 12.411 48.565 12.812 48.424C13.213 48.2831 13.977 47.886 14.511 47.542C17.349 45.714 17.088 45.779 17.533 46.792C17.724 47.227 18.068 47.808 18.297 48.082C18.526 48.356 18.858 48.919 19.034 49.332C19.211 49.745 19.496 50.233 19.667 50.417C19.838 50.6 20.122 51.089 20.299 51.502C20.476 51.916 20.754 52.365 20.917 52.5C21.079 52.635 21.353 53.074 21.526 53.477C22.052 54.704 24.447 57.247 27.152 59.45C28.263 60.355 28.332 60.604 28.333 63.718C28.333 66.8671 28.568 68.702 29.054 69.366C29.27 69.661 29.459 70.368 29.606 71.435C29.739 72.391 29.951 73.224 30.124 73.469C30.285 73.697 30.555 74.1161 30.724 74.4C31.668 75.985 33.91 76.828 34.688 75.891C35.18 75.297 34.973 73.347 34.325 72.481C34.009 72.0581 33.619 71.496 33.458 71.231C33.298 70.967 32.998 70.508 32.791 70.212C31.182 67.901 31.165 67.856 31.054 65.785C30.896 62.841 31.245 61.844 32.197 62.522C32.649 62.843 33.04 62.917 34.904 63.033C36.103 63.107 37.196 63.214 37.333 63.27C37.987 63.536 41.152 63.61 42.667 63.395C46.455 62.856 46.52 62.841 47.562 62.223C49.807 60.89 50.135 60.704 51.009 60.275C52.186 59.697 52.914 59.213 53.635 58.533C53.956 58.23 54.414 57.8811 54.653 57.757C55.991 57.065 59.369 53.135 60.366 51.11C60.629 50.575 60.986 49.938 61.159 49.694C61.332 49.45 61.557 48.84 61.659 48.338C61.762 47.837 62.087 47.052 62.381 46.593L62.917 45.759L62.972 42.338C63.039 38.142 62.958 37.402 62.328 36.467C62.062 36.073 61.795 35.425 61.734 35.027C61.495 33.452 58.089 30.321 56.059 29.81C54.567 29.434 50.859 29.689 49.935 30.231C49.488 30.492 48.682 30.809 48.144 30.935C47.605 31.06 46.884 31.349 46.541 31.575C46.197 31.802 45.58 32.105 45.169 32.25C44.758 32.395 44.233 32.694 44.002 32.914C43.772 33.135 43.283 33.44 42.917 33.593C41.635 34.125 40.125 35.407 38.372 37.449C36.119 40.075 35.153 41.361 35.051 41.872C34.999 42.128 34.667 42.636 34.312 43.002C33.957 43.368 33.667 43.739 33.667 43.828C33.667 43.916 33.447 44.239 33.179 44.544C32.91 44.85 32.539 45.5 32.353 45.988C32.168 46.476 31.82 47.159 31.58 47.505C31.288 47.927 31.086 48.526 30.967 49.325C30.862 50.035 30.641 50.736 30.421 51.061C29.976 51.717 29.903 51.99 29.668 53.899C29.318 56.734 28.503 57.239 26.917 55.604C26.55 55.226 25.837 54.531 25.333 54.059C24.829 53.587 24.117 52.7 23.75 52.089C23.383 51.477 22.839 50.608 22.541 50.157C22.242 49.707 21.808 48.944 21.575 48.461C20.968 47.201 20.13 45.753 19.792 45.379C19.192 44.717 19.741 43 20.552 43C20.629 43 21.304 42.414 22.054 41.697C22.803 40.98 23.53 40.324 23.668 40.239C23.806 40.153 24.138 39.783 24.407 39.417C24.676 39.05 26.25 37.392 27.906 35.731C30.956 32.673 31.955 31.497 32.395 30.443C32.529 30.122 32.795 29.777 32.985 29.675C33.176 29.572 33.475 29.21 33.648 28.869C33.822 28.529 34.119 28.11 34.309 27.939C34.498 27.768 34.771 27.273 34.914 26.841C35.058 26.408 35.387 25.851 35.646 25.603C35.905 25.355 36.288 24.786 36.497 24.339C36.996 23.274 37.724 23.128 39.841 23.669C41.35 24.054 42.134 24.043 43.667 23.615C44.171 23.474 45.183 23.231 45.917 23.076C46.758 22.897 47.589 22.585 48.17 22.23C48.676 21.92 49.176 21.667 49.282 21.667C49.388 21.667 49.686 21.489 49.946 21.272C50.205 21.055 50.808 20.681 51.286 20.439C51.764 20.198 52.235 19.851 52.332 19.669C52.43 19.486 52.714 19.23 52.963 19.099C53.429 18.856 55.946 16.426 57.016 15.187C57.346 14.805 57.71 14.179 57.825 13.797C57.939 13.414 58.232 12.841 58.475 12.522C58.911 11.952 58.917 11.901 58.969 8.87804L59.021 5.81204L58.181 4.09605C56.32 0.295045 54.879 -0.535956 51.622 0.313044ZM55.121 3.96704C56.246 5.19304 56.41 5.76004 56.409 8.41704C56.408 11.04 56.29 11.679 55.682 12.379C55.424 12.675 55.079 13.179 54.916 13.5C54.443 14.431 51.863 16.961 50.609 17.723C48.91 18.757 48.813 18.811 48 19.177C47.587 19.363 46.987 19.657 46.667 19.83C42.902 21.867 37.387 21.22 39.732 19.017C39.951 18.811 40.261 18.292 40.42 17.863C40.579 17.434 40.917 16.858 41.17 16.583C41.423 16.308 41.679 15.921 41.738 15.723C41.798 15.525 42.075 15.075 42.355 14.723C42.635 14.371 42.973 13.822 43.106 13.502C43.24 13.183 43.487 12.77 43.655 12.586C43.823 12.401 44.091 11.987 44.25 11.667C44.408 11.346 44.724 10.885 44.951 10.642C45.491 10.063 46.378 8.77704 46.9 7.81204C47.13 7.38804 47.703 6.71304 48.173 6.31204C48.643 5.91104 49.354 5.28304 49.752 4.91704C52.456 2.43004 53.535 2.23904 55.121 3.96704ZM162.583 18.753C162.033 18.869 161.319 19.009 160.996 19.065C159.648 19.3 157.073 21.735 156.305 23.5C156.125 23.913 155.788 24.45 155.555 24.694C154.886 25.396 154.605 28.711 155.15 29.477C155.662 30.195 155.761 30.148 156.183 28.991C156.386 28.436 156.801 27.668 157.107 27.283C157.413 26.898 157.664 26.501 157.665 26.4C157.67 25.877 160.408 22.167 161.053 21.811C162.174 21.19 165.86 21.456 166.616 22.211C166.964 22.559 167.002 24.957 166.672 25.75C166.237 26.798 165.815 28.466 165.665 29.736C165.562 30.599 165.339 31.406 165.018 32.072C164.66 32.814 164.478 33.525 164.348 34.695C164.143 36.537 164.088 36.721 163.535 37.458C163.243 37.846 163.092 38.327 163 39.167C162.921 39.884 162.694 40.697 162.412 41.274C162.159 41.791 161.852 42.743 161.729 43.388C161.605 44.034 161.28 45.028 161.006 45.597C160.716 46.197 160.466 47.04 160.409 47.607C160.223 49.442 159.819 51.749 159.57 52.395C158.536 55.066 160.704 59.536 163.339 60.168C164.62 60.475 167.175 60.298 167.879 59.853C168.175 59.666 168.754 59.329 169.167 59.106C169.996 58.656 171.739 57 172.079 56.339C172.73 55.074 173.041 50.938 172.637 48.917C172.083 46.14 172.273 45.5 173.651 45.5C174.041 45.5 174.836 45.309 175.419 45.076C177.392 44.287 180.844 44.034 181.391 44.638C181.771 45.058 181.745 45.179 181.117 45.928C178.364 49.209 177.115 53.006 177.821 55.949C178.518 58.853 183.775 60.083 187.053 58.109C188.688 57.124 188.764 56.9921 188.121 56.244L187.741 55.803L186.177 56.09C184.327 56.43 181.125 56.363 180.738 55.977C180.09 55.328 180.318 52.073 181.081 51.072C181.303 50.781 181.575 50.185 181.685 49.747C181.878 48.979 182.336 48.354 183.639 47.078C185.114 45.634 184.716 42.393 182.999 41.869C182.064 41.583 177.839 41.712 176.288 42.073C173.511 42.72 172.78 42.845 171.03 42.975C168.899 43.134 168.546 43.323 168.496 44.333C168.451 45.213 168.467 45.269 168.92 45.807C169.332 46.297 169.419 46.59 170.174 50.059C170.505 51.58 170.513 51.753 170.278 52.392C170.138 52.772 169.905 53.679 169.759 54.407C169.47 55.852 169.213 56.26 168.491 56.419C168.231 56.476 167.738 56.744 167.398 57.015C166.481 57.744 164.137 57.931 163.417 57.333C162.322 56.425 161.86 53.506 162.465 51.323C162.653 50.641 162.885 49.432 162.978 48.635C163.101 47.591 163.289 46.917 163.65 46.218C163.937 45.665 164.228 44.75 164.331 44.083C164.43 43.442 164.73 42.467 164.998 41.917C165.266 41.367 165.606 40.284 165.754 39.512C165.902 38.739 166.135 37.801 166.273 37.428C166.734 36.182 166.974 35.26 167.151 34.056C167.248 33.4 167.511 32.517 167.735 32.095C167.96 31.673 168.191 30.897 168.249 30.372C168.424 28.79 168.688 27.617 169.012 26.979C169.959 25.114 169.791 22.392 168.623 20.703C167.64 19.28 167.291 19.065 165.448 18.741C163.902 18.469 163.938 18.468 162.583 18.753ZM216.751 26.043C216.454 26.209 216 27.14 216 27.585C216 27.729 216.294 28.135 216.653 28.487C217.388 29.207 217.662 29.975 217.67 31.333C217.676 32.376 217.929 33.631 218.201 33.958C218.603 34.443 219.782 32.098 220.019 30.343L220.196 29.024L219.599 27.97C218.567 26.152 217.657 25.536 216.751 26.043ZM56.357 32.629C56.997 32.933 58.425 34.54 58.914 35.509C59.074 35.825 59.375 36.271 59.584 36.5C60.812 37.851 60.822 44.898 59.599 46.796C59.379 47.137 59.078 47.844 58.93 48.367C58.783 48.89 58.522 49.416 58.35 49.536C58.179 49.656 57.883 50.032 57.692 50.371C57.502 50.71 56.874 51.559 56.298 52.257C55.722 52.9561 55.121 53.727 54.964 53.972C54.618 54.511 53.005 56.167 52.826 56.167C52.756 56.167 52.391 56.423 52.015 56.737C51.64 57.051 51.051 57.399 50.708 57.511C50.364 57.622 49.811 57.957 49.478 58.256C49.107 58.588 48.608 58.842 48.19 58.913C47.815 58.976 47.262 59.207 46.962 59.426C45.744 60.316 44.523 60.516 40.167 60.542C34.61 60.574 33.433 60.368 32.232 59.148L31.425 58.329L31.727 57.29C31.893 56.718 32.105 55.65 32.2 54.917C32.449 52.971 33.58 49.109 34.2 48.083C34.311 47.9 34.63 47.332 34.909 46.821C35.188 46.311 35.591 45.673 35.804 45.405C36.017 45.136 36.411 44.579 36.681 44.167C36.95 43.754 37.355 43.154 37.58 42.833C37.805 42.512 38.161 41.997 38.37 41.687C38.579 41.377 39.057 40.777 39.432 40.354C39.807 39.93 40.257 39.333 40.432 39.027C40.715 38.531 41.656 37.735 43.68 36.281C44.039 36.023 44.333 35.743 44.333 35.66C44.333 35.454 45.124 35.072 45.829 34.937C46.147 34.877 46.635 34.608 46.912 34.341C47.267 34 47.757 33.778 48.56 33.593C49.188 33.448 50.162 33.106 50.724 32.832C51.993 32.212 55.231 32.096 56.357 32.629ZM81.789 33.671C79.623 34.011 76.395 36.746 75.078 39.357C74.923 39.665 74.583 40.142 74.323 40.417C74.063 40.692 73.725 41.217 73.572 41.583C73.419 41.95 73.083 42.491 72.825 42.785C72.5109 43.142 72.321 43.584 72.251 44.118C72.194 44.557 71.947 45.479 71.703 46.167C71.058 47.984 71.0499 50.534 71.686 51.75C71.9259 52.208 72.179 52.771 72.249 53C72.504 53.835 75.671 57.143 76.75 57.703C77.117 57.893 77.673 58.244 77.987 58.482C78.892 59.171 81.817 59.139 82.747 58.431C83.097 58.163 83.782 57.852 84.27 57.739C85.1199 57.541 86.478 56.565 87.376 55.505C87.823 54.978 88.766 55.534 89.558 56.792C89.803 57.181 90.074 57.5 90.159 57.5C90.2439 57.5 90.6619 57.802 91.088 58.171C91.514 58.539 92.137 58.955 92.473 59.095C92.809 59.235 93.377 59.552 93.737 59.799L94.39 60.25L97.599 60.249C100.613 60.247 100.838 60.226 101.29 59.892C101.554 59.697 102.216 59.299 102.76 59.009C104.078 58.306 105.397 57.355 105.835 56.792C106.439 56.014 107.216 56.4921 108.082 58.175C108.975 59.912 112.998 61.01 112.596 59.407C112.33 58.347 112.164 58.151 111.127 57.679C110.297 57.301 110.006 57.063 109.704 56.519C109.495 56.143 109.132 55.709 108.897 55.555C108.006 54.972 108.044 54.08 109.047 52C109.84 50.357 109.917 48.157 109.221 47.034C108.953 46.603 108.6 45.914 108.436 45.503C108.273 45.092 107.864 44.48 107.528 44.143C107.192 43.805 106.617 43.187 106.25 42.768C105.883 42.35 105.058 41.649 104.417 41.212L103.25 40.417H99.083H94.917L93.5 41.136C91.208 42.299 90.929 42.715 91.025 44.823C91.128 47.09 91.163 47.094 94.5 45.211C95.639 44.569 95.883 44.498 97.25 44.408C98.075 44.354 99.491 44.2 100.396 44.065C104.026 43.524 107.282 46.376 106.888 49.75C106.69 51.449 103.19 56.333 102.171 56.333C102.083 56.333 101.765 56.546 101.464 56.807C100.153 57.941 95.637 58.039 94.364 56.961C94.21 56.83 93.737 56.595 93.313 56.439C92.067 55.98 91.233 54.853 91.025 53.349C90.657 50.697 89.292 50.371 87.034 52.395C86.4569 52.912 85.782 53.461 85.534 53.614C85.2859 53.768 84.858 54.099 84.583 54.35C82.279 56.457 79.444 56.938 77.828 55.496C77.526 55.226 77.145 54.963 76.981 54.911C76.817 54.8591 76.528 54.565 76.338 54.258C76.1479 53.951 75.888 53.66 75.76 53.61C75.272 53.423 73.833 50.102 73.833 49.162C73.833 47.235 74.849 45.668 76.099 45.666C76.935 45.665 77.9689 45.377 78.504 44.997C78.735 44.832 79.371 44.568 79.917 44.409C80.463 44.251 81.174 43.909 81.497 43.65C81.819 43.392 82.4109 43.065 82.81 42.924C83.21 42.783 83.794 42.443 84.108 42.167C84.422 41.892 84.747 41.667 84.832 41.667C85.41 41.667 87.84 38.658 88.18 37.52C88.484 36.507 87.352 34.157 86.36 33.741C85.914 33.555 82.835 33.507 81.789 33.671ZM85.236 36.678C85.754 37.17 83.612 39.557 82 40.282C81.496 40.509 80.932 40.835 80.748 41.006C80.563 41.177 80.113 41.44 79.748 41.591C79.382 41.741 78.896 42.041 78.667 42.257C77.686 43.18 75.958 42.87 76.596 41.884C76.772 41.612 77.142 41.03 77.417 40.589C77.692 40.149 78.179 39.514 78.5 39.178C78.821 38.842 79.508 38.108 80.026 37.547C80.926 36.575 81.014 36.523 81.943 36.42C82.478 36.361 83.029 36.291 83.167 36.264C83.732 36.153 84.938 36.394 85.236 36.678ZM132.774 37.493C131.843 37.712 131.314 37.94 130.941 38.283C130.653 38.548 130.127 38.896 129.774 39.055C128.721 39.53 127.366 40.815 126.916 41.767C126.692 42.24 126.403 42.668 126.274 42.718C126.144 42.767 125.816 43.207 125.544 43.696C123.509 47.349 123.749 47.137 123.071 45.875C121.32 42.615 117.013 41.909 114.804 44.52C113.156 46.468 113.243 48.493 114.997 49.019C115.872 49.281 115.947 49.196 116.255 47.582C116.568 45.949 116.801 45.667 117.838 45.667C120.53 45.667 121.666 47.465 121.668 51.729C121.669 54.737 121.804 55.311 122.781 56.458C123.686 57.521 123.845 57.532 124.779 56.598L125.514 55.863L125.408 54.39C125.251 52.198 125.686 48.989 126.259 48.123C126.499 47.76 126.801 47.108 126.93 46.672C127.06 46.237 127.398 45.589 127.681 45.232C127.965 44.875 128.291 44.358 128.406 44.083C128.629 43.55 129.872 42.274 130.833 41.592C131.154 41.364 131.59 41.051 131.801 40.897C132.012 40.742 132.655 40.452 133.229 40.251L134.272 39.887L135.178 40.318L136.083 40.75L136.231 42C136.439 43.755 136.152 46.093 135.614 47.031C135.374 47.449 135.155 48.168 135.09 48.75C134.939 50.091 134.693 50.993 134.34 51.498C134.179 51.728 133.875 52.442 133.664 53.083C133.453 53.725 133.106 54.514 132.893 54.837C132.68 55.16 132.431 55.8181 132.34 56.3C132.171 57.19 131.957 57.716 131.582 58.167C131.468 58.304 131.219 59.15 131.028 60.047C130.838 60.943 130.537 61.881 130.36 62.13C130.183 62.379 129.873 63.146 129.672 63.833C129.47 64.521 129.106 65.377 128.861 65.736C128.153 66.775 128.174 72.247 128.891 73.732C129.152 74.272 129.498 75.022 129.66 75.398C129.822 75.775 130.337 76.44 130.804 76.875L131.652 77.667H133.084C135.399 77.667 136.657 76.776 138.707 73.688C139.059 73.159 139.083 72.51 138.767 72.079C138.413 71.594 137.159 72.255 135.641 73.726C134.107 75.211 133.083 75.403 132.394 74.333C132.188 74.013 131.869 73.556 131.685 73.318C130.76 72.12 130.724 67.952 131.623 66.25C131.927 65.674 132.226 64.776 132.327 64.134C132.541 62.781 132.619 62.559 133.107 61.908C133.318 61.628 133.573 60.991 133.676 60.491C133.778 59.992 134.07 59.283 134.324 58.917C134.598 58.522 134.901 57.729 135.068 56.972C135.223 56.269 135.464 55.599 135.603 55.484C136.002 55.153 136.269 54.503 136.487 53.333C136.598 52.737 136.882 51.875 137.117 51.417C137.384 50.899 137.598 50.124 137.683 49.364C137.764 48.638 138 47.759 138.265 47.196C138.759 46.144 138.937 43.907 138.739 41.223C138.511 38.123 136.209 36.683 132.774 37.493ZM10.267 39.147C10.735 39.238 11.329 39.59 12.152 40.265C12.812 40.807 13.646 41.459 14.004 41.715C14.594 42.138 14.996 42.897 14.999 43.6C15.001 43.915 13.115 45.438 12.454 45.655C12.108 45.769 11.621 46.032 11.371 46.24C10.659 46.832 10.332 46.951 9.08296 47.073C8.44196 47.136 7.48996 47.304 6.96796 47.447C3.49296 48.394 1.45496 45.36 3.68596 42.562C3.96796 42.207 4.34296 41.636 4.51896 41.294C4.70196 40.937 5.10396 40.525 5.46096 40.329C5.80296 40.141 6.34196 39.824 6.65896 39.625C7.51596 39.086 8.96295 38.894 10.267 39.147ZM201.712 39.168C200.634 39.393 199.479 39.956 198.833 40.574C198.512 40.88 197.912 41.299 197.5 41.505C195.149 42.676 193.012 45.236 192.313 47.717C192.138 48.341 191.792 49.237 191.545 49.709C190.312 52.068 191.02 55.008 193.275 56.885C195.405 58.659 195.645 58.792 197.083 58.986C197.817 59.085 198.754 59.25 199.167 59.352C200.31 59.634 203.394 59.046 204.37 58.359C204.762 58.083 205.397 57.766 205.779 57.656C206.895 57.333 210.287 53.865 211.041 52.276C211.222 51.895 211.553 51.387 211.778 51.148C212.021 50.8881 212.285 50.286 212.431 49.659C212.566 49.08 212.815 48.376 212.985 48.095C214.425 45.703 211.447 41.37 207.639 40.314C207.003 40.138 206.13 39.813 205.699 39.592C204.806 39.134 202.865 38.927 201.712 39.168ZM231.25 39.266C230.975 39.418 230.637 39.632 230.5 39.743C230.362 39.853 229.901 40.072 229.474 40.229C228.788 40.483 228.647 40.625 228.251 41.466C228.005 41.989 227.668 42.567 227.501 42.75C226.791 43.532 226.609 45.905 227.165 47.131C227.554 47.988 228.234 48.333 229.536 48.334C233.78 48.339 236.273 51.2201 234.302 53.841C234.065 54.1581 233.816 54.679 233.75 55C233.626 55.606 233.082 56.333 232.752 56.333C232.648 56.333 232.354 56.55 232.1 56.816C231.016 57.947 227.194 58.235 225.458 57.317C224.876 57.008 223.025 54.749 222.889 54.18C222.579 52.88 221.359 52.07 220.701 52.727C220.147 53.282 220.301 55.527 220.94 56.199C221.228 56.502 221.517 56.927 221.582 57.143C221.738 57.661 222.75 58.7701 223.563 59.315C223.92 59.554 224.391 59.87 224.611 60.018C225.253 60.447 228.305 60.76 229.575 60.526C230.15 60.42 230.854 60.333 231.138 60.333C231.469 60.333 231.852 60.161 232.203 59.855C232.504 59.591 233.134 59.211 233.603 59.01C236.566 57.74 238.236 52.421 236.702 49.138C235.945 47.518 235.707 47.308 234.173 46.915C233.58 46.763 232.786 46.458 232.408 46.236C231.983 45.987 231.459 45.833 231.036 45.833C229.284 45.833 229.051 44.23 230.586 42.738C231.507 41.843 231.99 41.667 233.515 41.667C234.993 41.667 235.311 41.362 234.999 40.247C234.684 39.12 232.534 38.558 231.25 39.266ZM152.583 40.439C152.4 40.488 151.8 40.736 151.25 40.991C150.7 41.245 149.907 41.578 149.487 41.73C148.336 42.146 145.62 44.899 143.859 47.434C142.633 49.2 142.332 52.187 143.218 53.801C143.815 54.887 144.832 56.333 144.999 56.333C145.085 56.333 145.401 56.546 145.703 56.806C147.836 58.65 151.498 59.428 153 58.358C153.229 58.194 153.735 57.884 154.123 57.667C154.512 57.451 154.877 57.125 154.935 56.943C154.993 56.76 155.265 56.406 155.54 56.155C156.287 55.473 156.034 55.278 154.519 55.37C153.61 55.424 153.084 55.548 152.667 55.806C151.911 56.271 150.173 56.308 149.389 55.875C149.099 55.714 148.539 55.405 148.145 55.187C145.488 53.717 144.681 50.581 146.372 48.301C147.352 46.979 149.914 44.5 150.486 44.32C150.814 44.216 151.37 43.947 151.721 43.722C152.591 43.163 153.815 42.99 156.671 43.023C160.124 43.064 160.761 42.621 158.708 41.608C158.09 41.302 157.332 40.919 157.024 40.755C156.461 40.456 153.351 40.234 152.583 40.439ZM205.5 42.361C205.912 42.598 206.607 42.878 207.044 42.982C208.96 43.442 210.791 45.555 210.561 47.04C210.439 47.824 209.32 50.385 209.018 50.572C208.913 50.637 208.647 51.041 208.426 51.47C207.961 52.377 205.619 54.721 204.806 55.093C204.5 55.233 204.002 55.528 203.698 55.748C202.218 56.819 197.598 56.795 196.184 55.708C195.857 55.456 195.278 55.051 194.898 54.808C193.543 53.942 193.294 51.931 194.304 50.006C194.572 49.494 194.847 48.74 194.915 48.329C195.137 46.991 196.564 45.173 197.832 44.615C198.245 44.433 198.891 43.976 199.266 43.6C199.986 42.88 200.88 42.166 201.321 41.961C201.979 41.654 204.727 41.917 205.5 42.361ZM40.5 69.967C39.96 70.404 40.14 71.652 40.822 72.204C41.798 72.993 42.082 75.328 41.658 79.083C41.545 80.092 41.444 81.404 41.434 82L41.417 83.083L41.926 83.133C42.341 83.174 42.478 83.097 42.671 82.716C42.8 82.4601 43.119 81.93 43.379 81.54C44.427 79.966 44.975 76.098 44.504 73.603C44.095 71.436 41.545 69.12 40.5 69.967Z" fill="#ffffff" />
</svg>
